<?xml version="1.0" encoding="UTF-8"?>
<svg width="256px" height="256px" viewBox="0 0 256 256" version="1.1" xmlns="http://www.w3.org/2000/svg" xmlns:xlink="http://www.w3.org/1999/xlink">
    <!-- Generator: Sketch 63.1 (92452) - https://sketch.com -->
    <title>Artboard</title>
    <desc>Created with Sketch.</desc>
    <g id="Artboard" stroke="none" stroke-width="1" fill="none" fill-rule="evenodd">
        <polygon id="Path-3" fill="#000000" points="100 215 108 210 133 210 141 215 142 226 133 230 110 230 100 226"></polygon>
        <g id="Group" transform="translate(85.000000, 26.500000)" fill="#000000">
            <path d="M32,1.5 C34,2.83333333 35.6666667,5.83333333 37,10.5 L43,10.5 C45.6666667,12.5 47,14.1666667 47,15.5 C47,17.5 45,20.5 43,20.5 L39,20.5 L39,20.5 L39,31.5 L45,31.5 L49,36.5 C52.3333333,34.5 54.6666667,34.5 56,36.5 C57.3333333,38.5 58,38.5 58,36.5 C58,34.5 60.3333333,32.8333333 65,31.5 L79,27.5 L79,27.5 L84,23.5 L92,17.5 L101,12.5 L107,10.5 L114,8.5 L116,5.5 L127,5.5 L127,8.5 L116,15.5 L111,15.5 L99,23.5 L92,27.5 L87,29.5 L86,31.5 L85,31.5 L84,33.5 L79,36.5 L70,40.5 L62,43.5 L58,43.5 L56,46.5 L49,46.5 L49,53.5 L47,58.5 L45,62.5 L45,67.5 L47,71.5 L49,77.5 L49,90.5 L52,94.5 L52,138.5 L54,146.5 L54,182.5 L58,185.5 L62,190.5 C63.1537026,194.205248 63.1537026,196.538581 62,197.5 C60.8462974,198.461419 58.8462974,197.794752 56,195.5 L43,180.5 L47,177.5 L43,146.5 L45,140.5 L43,135.5 L43,131.5 L41,116.5 L39,106.5 L37,188.5 L34,188.5 L34,101.5 L25,116.5 L19,127.5 L16,131.5 L19,135.5 L22,163.5 L27,165.5 L25,171.5 L22,182.5 C18.7017359,189.073032 16.7017359,191.073032 16,188.5 C15.2982641,185.926968 15.2982641,182.260302 16,177.5 L17,173.5 L16,171.5 L9,146.5 L7,131.5 L8,127.5 L9,123.5 L11,116.5 L25,94.5 L25,90.5 L27,75.5 L30,69.5 L30,65.5 L22,53.5 L22,46.5 L19,48.5 L14,48.5 L4,38.5 L0,33.5 L4,29.5 L7,25.5 L22,17.5 L19,10.5 C18.3333333,5.83333333 19.3333333,2.83333333 22,1.5 C26,-0.5 29,-0.5 32,1.5 Z M24,25.5 L14,33.5 L20,37.5 L21,35.5 L25,33.5 L28,32.5 L28,29.5 L24,25.5 Z" id="Combined-Shape"></path>
        </g>
    </g>
</svg>